<svg width="22" height="27" viewBox="0 0 22 27" fill="none" xmlns="http://www.w3.org/2000/svg">
<path d="M21.5389 21.0412C21.1439 21.9845 20.6764 22.8528 20.1347 23.6511C19.3963 24.7394 18.7917 25.4927 18.3258 25.9111C17.6036 26.5977 16.8297 26.9494 16.001 26.9693C15.4061 26.9693 14.6887 26.7943 13.8536 26.4394C13.0157 26.086 12.2457 25.911 11.5417 25.911C10.8033 25.911 10.0114 26.086 9.16436 26.4394C8.31602 26.7944 7.63261 26.9794 7.11009 26.9977C6.31545 27.0327 5.52339 26.671 4.73277 25.911C4.22814 25.4561 3.59698 24.6761 2.84084 23.5711C2.02959 22.3911 1.36264 21.0229 0.840114 19.4629C0.280522 17.778 0 16.1464 0 14.5667C0 12.7573 0.378224 11.1967 1.13579 9.88888C1.73118 8.83842 2.52325 8.00977 3.51459 7.40148C4.50591 6.79316 5.57707 6.48315 6.73059 6.46334C7.36177 6.46334 8.18946 6.66516 9.21804 7.06181C10.2437 7.45981 10.9023 7.66163 11.191 7.66163C11.4069 7.66163 12.1385 7.42563 13.3788 6.95515C14.5517 6.51883 15.5415 6.33814 16.3525 6.40933C18.5499 6.59266 20.2008 7.48812 21.2987 9.10142C19.3334 10.3324 18.3613 12.0565 18.3806 14.2682C18.3984 15.991 19.0029 17.4247 20.1911 18.563C20.7296 19.0913 21.3309 19.4996 22 19.7896C21.8549 20.2246 21.7017 20.6412 21.5389 21.0412V21.0412ZM16.4992 0.54016C16.4992 1.89046 16.022 3.15124 15.0708 4.31821C13.9229 5.70551 12.5345 6.50714 11.0289 6.38065C11.0087 6.21089 10.9986 6.04002 10.9985 5.86899C10.9985 4.5727 11.5444 3.1854 12.5139 2.05111C12.9978 1.47679 13.6134 0.999266 14.3598 0.618327C15.1046 0.243073 15.8092 0.0355467 16.4718 0C16.4912 0.180508 16.4992 0.361039 16.4992 0.540137V0.54016Z" fill="#F9FBFC"/>
</svg>
