<svg width="45" height="54" viewBox="0 0 45 54" fill="none" xmlns="http://www.w3.org/2000/svg">
<path d="M30.1079 15.6367H42.3484L37.5882 51.9998H6.7602L2 15.6367H23.3076" stroke="white" stroke-width="3.5" stroke-miterlimit="10" stroke-linecap="round" stroke-linejoin="round"/>
<path d="M14.2397 24.7306C15.4916 24.7306 16.5065 23.7129 16.5065 22.4576C16.5065 21.2022 15.4916 20.1846 14.2397 20.1846C12.9878 20.1846 11.9729 21.2022 11.9729 22.4576C11.9729 23.7129 12.9878 24.7306 14.2397 24.7306Z" fill="white"/>
<path d="M30.1079 24.7253C31.3598 24.7253 32.3746 23.7081 32.3746 22.4532C32.3746 21.1984 31.3598 20.1812 30.1079 20.1812C28.8559 20.1812 27.8411 21.1984 27.8411 22.4532C27.8411 23.7081 28.8559 24.7253 30.1079 24.7253Z" fill="white"/>
<path d="M14.2411 22.4533V9.95407C14.2411 5.63615 17.8679 2 22.1747 2C26.4815 2 30.1083 5.63615 30.1083 9.95407V22.4533" stroke="white" stroke-width="3.5" stroke-miterlimit="10"/>
</svg>
