<svg width="60" height="43" viewBox="0 0 60 43" fill="none" xmlns="http://www.w3.org/2000/svg">
<path d="M12.7581 40.0742C14.9749 40.0742 16.772 38.1195 16.772 35.7083C16.772 33.297 14.9749 31.3423 12.7581 31.3423C10.5412 31.3423 8.74414 33.297 8.74414 35.7083C8.74414 38.1195 10.5412 40.0742 12.7581 40.0742Z" stroke="#073279" stroke-width="3.17228" stroke-miterlimit="10" stroke-linecap="round" stroke-linejoin="round"/>
<path d="M47.9193 40.4248C50.1361 40.4248 51.9333 38.4701 51.9333 36.0588C51.9333 33.6476 50.1361 31.6929 47.9193 31.6929C45.7024 31.6929 43.9053 33.6476 43.9053 36.0588C43.9053 38.4701 45.7024 40.4248 47.9193 40.4248Z" stroke="#073279" stroke-width="3.17228" stroke-miterlimit="10" stroke-linecap="round" stroke-linejoin="round"/>
<path d="M8.74348 36.2337H6.81677C4.24783 36.2337 2 33.9632 2 30.994V25.7542V24.8809C2 24.357 2.16056 23.833 2.32112 23.4837L6.01398 14.5761C6.49565 13.3535 7.78013 12.4802 9.0646 12.4802H27.0472H33.6301C34.4329 12.4802 35.3963 12.8295 35.878 13.5282L47.1171 24.357" stroke="#073279" stroke-width="3.17228" stroke-miterlimit="10" stroke-linecap="round" stroke-linejoin="round"/>
<path d="M16.9326 36.2344H43.9065" stroke="#073279" stroke-width="3.17228" stroke-miterlimit="10" stroke-linecap="round" stroke-linejoin="round"/>
<path d="M9.06348 21.2139C10.1874 23.1351 12.1141 24.3578 14.2014 24.3578H54.02C56.2678 24.3578 58.1945 26.4537 58.1945 28.899V36.2347H52.0933" stroke="#073279" stroke-width="3.17228" stroke-miterlimit="10" stroke-linecap="round" stroke-linejoin="round"/>
<path d="M27.0469 24.3568V21.0382V17.5449" stroke="#073279" stroke-width="3.17228" stroke-miterlimit="10" stroke-linecap="round" stroke-linejoin="round"/>
<path d="M12.4355 9.16089V11.7811" stroke="#073279" stroke-width="3.17228" stroke-miterlimit="10" stroke-linecap="round" stroke-linejoin="round"/>
<path d="M30.7402 9.16089V11.7811" stroke="#073279" stroke-width="3.17228" stroke-miterlimit="10" stroke-linecap="round" stroke-linejoin="round"/>
<path d="M31.1783 8.98647H11.3569C9.24482 8.98647 7.62012 7.46767 7.62012 5.49324C7.62012 3.5188 9.24482 2 11.3569 2H31.1783C33.2905 2 34.9152 3.5188 34.9152 5.49324C34.7527 7.31579 33.128 8.98647 31.1783 8.98647Z" stroke="#073279" stroke-width="3.17228" stroke-miterlimit="10" stroke-linecap="round" stroke-linejoin="round"/>
</svg>
