<svg width="49" height="49" viewBox="0 0 49 49" fill="none" xmlns="http://www.w3.org/2000/svg">
<path d="M16.0123 28.0219C22.6449 28.0219 28.0217 22.6451 28.0217 16.0125C28.0217 9.37995 22.6449 4.00317 16.0123 4.00317C9.3797 4.00317 4.00293 9.37995 4.00293 16.0125C4.00293 22.6451 9.3797 28.0219 16.0123 28.0219Z" stroke="#073279" stroke-width="4.00312" stroke-linecap="round" stroke-linejoin="round"/>
<path d="M36.2074 20.7563C38.0995 21.4618 39.7832 22.6329 41.1027 24.1614C42.4223 25.6899 43.3351 27.5265 43.7568 29.5013C44.1785 31.4761 44.0954 33.5253 43.5152 35.4595C42.935 37.3937 41.8765 39.1503 40.4376 40.567C38.9986 41.9837 37.2256 43.0147 35.2827 43.5646C33.3397 44.1145 31.2894 44.1656 29.3214 43.7132C27.3534 43.2607 25.5313 42.3194 24.0236 40.9761C22.5158 39.6329 21.3711 37.9311 20.6953 36.0283" stroke="#073279" stroke-width="4.00312" stroke-linecap="round" stroke-linejoin="round"/>
<path d="M14.0107 12.0095H16.0123V20.0158" stroke="#073279" stroke-width="4.00312" stroke-linecap="round" stroke-linejoin="round"/>
<path d="M33.4455 27.7815L34.8465 29.2026L29.2021 34.847" stroke="#073279" stroke-width="4.00312" stroke-linecap="round" stroke-linejoin="round"/>
</svg>
