<svg width="26" height="28" viewBox="0 0 26 28" fill="none" xmlns="http://www.w3.org/2000/svg">
<path d="M17.7644 10.5788L14.6902 13.6531C14.467 13.8762 14.467 14.2381 14.6902 14.4612L17.9813 17.7524C18.1618 17.9328 18.4399 17.9717 18.6629 17.8478L21.7025 16.1592C23.3137 15.264 23.2702 12.9321 21.6267 12.0978L18.4272 10.4734C18.2067 10.3614 17.9393 10.404 17.7644 10.5788Z" fill="#0084CF"/>
<path d="M3.40335 24.9931L12.9801 15.5843C13.1987 15.3696 13.5479 15.3655 13.7714 15.5751L16.4597 18.0953C16.7414 18.3594 16.6854 18.8213 16.3487 19.0104L4.08365 25.899C3.50196 26.2257 2.92744 25.4607 3.40335 24.9931Z" fill="#0084CF"/>
<path d="M0 25.1608V2.9535C0 2.44814 0.607809 2.19153 0.969968 2.54399L12.3792 13.6476C12.6097 13.872 12.6097 14.2423 12.3792 14.4667L0.969968 25.5703C0.607809 25.9228 0 25.6661 0 25.1608Z" fill="#0084CF"/>
<path d="M16.4992 10.2437L13.8863 12.8565C13.6645 13.0783 13.3054 13.0799 13.0817 12.86L3.13611 3.08295C2.6588 2.61374 3.23849 1.84746 3.81985 2.17911L16.3782 9.3433C16.7057 9.53008 16.7657 9.97715 16.4992 10.2437Z" fill="#0084CF"/>
</svg>
