<svg width="40" height="40" viewBox="0 0 40 40" fill="none" xmlns="http://www.w3.org/2000/svg">
<path d="M20.4241 26.5619C22.0622 26.5619 23.3902 25.2166 23.3902 23.5571C23.3902 21.8975 22.0622 20.5522 20.4241 20.5522C18.786 20.5522 17.458 21.8975 17.458 23.5571C17.458 25.2166 18.786 26.5619 20.4241 26.5619Z" stroke="#143A7C" stroke-width="2" stroke-miterlimit="10" stroke-linecap="round" stroke-linejoin="round"/>
<path d="M28.3856 21.0279C27.2928 17.707 24.1706 15.1767 20.424 15.1767C15.8968 15.1767 12.1502 18.9721 12.1502 23.5581C12.1502 28.7767 15.7407 34.4698 20.2679 37C20.2679 37 26.9806 33.8372 32.4445 22.9256C36.035 15.6512 35.0983 8.85116 35.0983 8.85116L20.2679 3L5.4375 9.0093C5.4375 9.0093 5.4375 18.0233 7.46692 21.9767" stroke="#143A7C" stroke-width="2" stroke-miterlimit="10" stroke-linecap="round" stroke-linejoin="round"/>
</svg>
