<svg width="40" height="40" viewBox="0 0 40 40" fill="none" xmlns="http://www.w3.org/2000/svg">
<path d="M29.6966 8.45322C28.6781 8.15845 28.0962 7.42153 28.0962 6.53722L27.8052 6.38984C27.2232 7.12676 26.3503 7.56891 25.4773 7.27414C24.6044 6.97937 24.0224 6.24245 23.8769 5.35815L23.586 5.21076C23.004 5.94768 22.131 6.38984 21.2581 6.09507C20.3852 5.8003 19.6577 5.06338 19.6577 4.03169H19.3667C18.9303 4.76861 17.9118 5.06338 17.0389 4.916C16.1659 4.62123 15.584 3.88431 15.4385 3H15.293L7 32.6242L23.7314 37.4879L32.0244 7.7163H31.8789C31.4425 8.45322 30.5695 8.74799 29.6966 8.45322Z" stroke="#143A7C" stroke-width="2" stroke-miterlimit="10" stroke-linecap="round" stroke-linejoin="round"/>
<path d="M13.6914 11.5483L24.8942 14.7905" stroke="#143A7C" stroke-width="2" stroke-miterlimit="10" stroke-linecap="round"/>
<path d="M14.1277 23.1904L12.2363 30.2652" stroke="#143A7C" stroke-width="2" stroke-miterlimit="10" stroke-linecap="round"/>
<path d="M19.5114 20.0955L16.4561 31.4435" stroke="#143A7C" stroke-width="2" stroke-miterlimit="10" stroke-linecap="round"/>
<path d="M22.4225 20.9814L19.2217 32.3299" stroke="#143A7C" stroke-width="2" stroke-miterlimit="10" stroke-linecap="round"/>
</svg>
