<svg width="40" height="40" viewBox="0 0 40 40" fill="none" xmlns="http://www.w3.org/2000/svg">
<path d="M12.0043 15.0773L7.51074 34.261L23.2384 38.0002L27.732 18.6539L22.7569 10.5252C22.2754 9.71238 21.152 9.54981 20.1891 10.0375L12.0043 15.0773Z" stroke="#143A7C" stroke-width="2" stroke-miterlimit="10" stroke-linecap="round" stroke-linejoin="round"/>
<path d="M20.3483 16.2153C21.0574 16.2153 21.6322 15.6329 21.6322 14.9145C21.6322 14.1961 21.0574 13.6138 20.3483 13.6138C19.6393 13.6138 19.0645 14.1961 19.0645 14.9145C19.0645 15.6329 19.6393 16.2153 20.3483 16.2153Z" stroke="#143A7C" stroke-width="2" stroke-miterlimit="10" stroke-linecap="round" stroke-linejoin="round"/>
<path d="M15.6937 23.8564C16.5801 23.8564 17.2986 23.1285 17.2986 22.2307C17.2986 21.3328 16.5801 20.605 15.6937 20.605C14.8074 20.605 14.0889 21.3328 14.0889 22.2307C14.0889 23.1285 14.8074 23.8564 15.6937 23.8564Z" stroke="#143A7C" stroke-width="2" stroke-miterlimit="10" stroke-linecap="round" stroke-linejoin="round"/>
<path d="M19.5453 32.1476C20.4316 32.1476 21.1501 31.4198 21.1501 30.5219C21.1501 29.6241 20.4316 28.8962 19.5453 28.8962C18.6589 28.8962 17.9404 29.6241 17.9404 30.5219C17.9404 31.4198 18.6589 32.1476 19.5453 32.1476Z" stroke="#143A7C" stroke-width="2" stroke-miterlimit="10" stroke-linecap="round" stroke-linejoin="round"/>
<path d="M22.1135 22.8809L12.4844 30.5221" stroke="#143A7C" stroke-width="2" stroke-miterlimit="10" stroke-linecap="round" stroke-linejoin="round"/>
<path d="M20.6699 13.777C20.6699 13.777 18.9045 0.933354 23.3982 2.0714C26.1264 2.72171 24.5216 6.94872 22.7562 10.2003" stroke="#143A7C" stroke-width="2" stroke-miterlimit="10" stroke-linecap="round" stroke-linejoin="round"/>
<path d="M25.8076 37.5126L31.7456 37.1875L30.6222 17.354L27.252 14.4277" stroke="#143A7C" stroke-width="2" stroke-miterlimit="10" stroke-linecap="round" stroke-linejoin="round"/>
</svg>
