<svg width="40" height="40" viewBox="0 0 40 40" fill="none" xmlns="http://www.w3.org/2000/svg">
<path d="M8.1737 31.4476C9.65196 31.4476 10.8503 30.2337 10.8503 28.7363C10.8503 27.2388 9.65196 26.0249 8.1737 26.0249C6.69544 26.0249 5.49707 27.2388 5.49707 28.7363C5.49707 30.2337 6.69544 31.4476 8.1737 31.4476Z" stroke="#143A7C" stroke-width="1.92" stroke-miterlimit="10" stroke-linecap="round" stroke-linejoin="round"/>
<path d="M31.621 31.6656C33.0992 31.6656 34.2976 30.4517 34.2976 28.9544C34.2976 27.457 33.0992 26.2432 31.621 26.2432C30.1427 26.2432 28.9443 27.457 28.9443 28.9544C28.9443 30.4517 30.1427 31.6656 31.621 31.6656Z" stroke="#143A7C" stroke-width="1.92" stroke-miterlimit="10" stroke-linecap="round" stroke-linejoin="round"/>
<path d="M5.49674 29.0632H4.21196C2.49891 29.0632 1 27.6533 1 25.8095V22.5558V22.0136C1 21.6882 1.10707 21.3628 1.21413 21.1459L3.67663 15.6147C3.99783 14.8555 4.85435 14.3132 5.71087 14.3132H17.7022H22.0919C22.6272 14.3132 23.2696 14.5301 23.5908 14.964L31.0853 21.6882" stroke="#143A7C" stroke-width="1.92" stroke-miterlimit="10" stroke-linecap="round" stroke-linejoin="round"/>
<path d="M10.957 29.0627H28.944" stroke="#143A7C" stroke-width="1.92" stroke-miterlimit="10" stroke-linecap="round" stroke-linejoin="round"/>
<path d="M5.70996 19.7361C6.45942 20.9291 7.7442 21.6884 9.13605 21.6884H35.6882C37.1871 21.6884 38.4719 22.9899 38.4719 24.5083V29.0636H34.4034" stroke="#143A7C" stroke-width="1.92" stroke-miterlimit="10" stroke-linecap="round" stroke-linejoin="round"/>
<path d="M17.7021 21.6874V19.6264V17.457" stroke="#143A7C" stroke-width="1.92" stroke-miterlimit="10" stroke-linecap="round" stroke-linejoin="round"/>
<path d="M7.95898 12.2515V13.8785" stroke="#143A7C" stroke-width="1.92" stroke-miterlimit="10" stroke-linecap="round" stroke-linejoin="round"/>
<path d="M20.165 12.2515V13.8785" stroke="#143A7C" stroke-width="1.92" stroke-miterlimit="10" stroke-linecap="round" stroke-linejoin="round"/>
<path d="M20.4573 12.1432H7.23986C5.83144 12.1432 4.74805 11.2001 4.74805 9.97405C4.74805 8.74803 5.83144 7.80493 7.23986 7.80493H20.4573C21.8657 7.80493 22.9491 8.74803 22.9491 9.97405C22.8408 11.1058 21.7574 12.1432 20.4573 12.1432Z" stroke="#143A7C" stroke-width="1.92" stroke-miterlimit="10" stroke-linecap="round" stroke-linejoin="round"/>
</svg>
