<svg width="40" height="40" viewBox="0 0 40 40" fill="none" xmlns="http://www.w3.org/2000/svg">
<path d="M25.6047 12.1331H34.1422L30.822 36.4879H9.32015L6 12.1331H20.8616" stroke="#143A7C" stroke-width="2" stroke-miterlimit="10" stroke-linecap="round" stroke-linejoin="round"/>
<path d="M14.5361 18.2244C15.4093 18.2244 16.1171 17.543 16.1171 16.7023C16.1171 15.8617 15.4093 15.1802 14.5361 15.1802C13.6629 15.1802 12.9551 15.8617 12.9551 16.7023C12.9551 17.543 13.6629 18.2244 14.5361 18.2244Z" fill="#143A7C"/>
<path d="M25.6035 18.2215C26.4767 18.2215 27.1845 17.54 27.1845 16.6994C27.1845 15.8587 26.4767 15.1772 25.6035 15.1772C24.7303 15.1772 24.0225 15.8587 24.0225 16.6994C24.0225 17.54 24.7303 18.2215 25.6035 18.2215Z" fill="#143A7C"/>
<path d="M14.5381 16.699V8.32741C14.5381 5.43539 17.0677 3 20.0717 3C23.0756 3 25.6052 5.43539 25.6052 8.32741V16.699" stroke="#143A7C" stroke-width="2" stroke-miterlimit="10"/>
</svg>
