<svg width="40" height="40" viewBox="0 0 40 40" fill="none" xmlns="http://www.w3.org/2000/svg">
<path d="M24.8547 5.15283H31.9365V36.0003H8V5.15283H21.4554" stroke="#143A7C" stroke-width="2" stroke-miterlimit="10" stroke-linecap="round" stroke-linejoin="round"/>
<path d="M14.9408 10.1747C15.723 10.1747 16.3571 9.53225 16.3571 8.73979C16.3571 7.94734 15.723 7.30493 14.9408 7.30493C14.1585 7.30493 13.5244 7.94734 13.5244 8.73979C13.5244 9.53225 14.1585 10.1747 14.9408 10.1747Z" fill="#143A7C"/>
<path d="M24.8558 10.1744C25.6381 10.1744 26.2722 9.532 26.2722 8.73955C26.2722 7.9471 25.6381 7.30469 24.8558 7.30469C24.0736 7.30469 23.4395 7.9471 23.4395 8.73955C23.4395 9.532 24.0736 10.1744 24.8558 10.1744Z" fill="#143A7C"/>
<path d="M14.9414 8.02122V3" stroke="#143A7C" stroke-width="2" stroke-miterlimit="10" stroke-linecap="round" stroke-linejoin="round"/>
<path d="M24.8545 8.02122V3" stroke="#143A7C" stroke-width="2" stroke-miterlimit="10" stroke-linecap="round" stroke-linejoin="round"/>
<path d="M11.8223 18.0645H18.9041" stroke="#143A7C" stroke-width="2" stroke-miterlimit="10" stroke-linecap="round" stroke-linejoin="round"/>
<path d="M23.8613 16.6303L25.2777 18.065L28.1104 15.1956" stroke="#143A7C" stroke-width="2" stroke-miterlimit="10" stroke-linecap="round" stroke-linejoin="round"/>
<path d="M11.8223 23.8035H18.9041" stroke="#143A7C" stroke-width="2" stroke-miterlimit="10" stroke-linecap="round" stroke-linejoin="round"/>
<path d="M23.8613 23.8041L25.2777 25.2388L28.1104 22.3694" stroke="#143A7C" stroke-width="2" stroke-miterlimit="10" stroke-linecap="round" stroke-linejoin="round"/>
<path d="M11.8223 29.5435H18.9041" stroke="#143A7C" stroke-width="2" stroke-miterlimit="10" stroke-linecap="round" stroke-linejoin="round"/>
<path d="M23.8613 29.5436L25.2777 30.9783L28.1104 28.1089" stroke="#143A7C" stroke-width="2" stroke-miterlimit="10" stroke-linecap="round" stroke-linejoin="round"/>
</svg>
