<svg width="46" height="46" viewBox="0 0 46 46" fill="none" xmlns="http://www.w3.org/2000/svg">
<path d="M42.3378 38.3789L34.3717 19.0832C34.2245 18.7269 33.975 18.4222 33.6545 18.2079C33.3341 17.9935 32.9573 17.8791 32.5718 17.8791C32.1862 17.8791 31.8094 17.9935 31.489 18.2079C31.1686 18.4222 30.919 18.7269 30.7719 19.0832L22.8057 38.3789C22.7067 38.6156 22.6554 38.8694 22.6547 39.1259C22.6541 39.3825 22.7041 39.6366 22.802 39.8737C22.8998 40.1108 23.0436 40.3263 23.225 40.5077C23.4064 40.6891 23.6218 40.8329 23.8589 40.9308C24.096 41.0287 24.3501 41.0787 24.6067 41.0781C24.8632 41.0775 25.1171 41.0262 25.3537 40.9272C25.5904 40.8281 25.8051 40.6833 25.9856 40.5011C26.1661 40.3188 26.3088 40.1026 26.4055 39.865L28.028 35.936H37.1155L38.738 39.865C38.885 40.2215 39.1347 40.5263 39.4552 40.7408C39.7757 40.9553 40.1527 41.0697 40.5383 41.0697C40.8583 41.0695 41.1733 40.9905 41.4555 40.8396C41.7376 40.6887 41.9782 40.4706 42.1561 40.2045C42.3339 39.9385 42.4434 39.6328 42.4749 39.3144C42.5065 38.9959 42.4591 38.6747 42.3369 38.3789H42.3378ZM29.6362 32.0414L32.5722 24.9295L35.5082 32.0414H29.6362ZM23.7068 30.3526C24.0093 29.9347 24.1337 29.4139 24.0525 28.9044C23.9714 28.3949 23.6914 27.9385 23.274 27.6353C23.2563 27.622 21.9463 26.6501 20.0442 24.5612C23.5537 19.8099 25.5417 14.4044 26.3524 11.8606H29.2087C29.7252 11.8606 30.2205 11.6554 30.5857 11.2903C30.9508 10.9251 31.156 10.4298 31.156 9.91333C31.156 9.39688 30.9508 8.90158 30.5857 8.5364C30.2205 8.17121 29.7252 7.96606 29.2087 7.96606H18.9413V6.19581C18.9413 5.67936 18.7361 5.18406 18.3709 4.81888C18.0058 4.45369 17.5105 4.24854 16.994 4.24854C16.4776 4.24854 15.9823 4.45369 15.6171 4.81888C15.2519 5.18406 15.0467 5.67936 15.0467 6.19581V7.96606H4.7793C4.26286 7.96606 3.76756 8.17121 3.40237 8.5364C3.03719 8.90158 2.83203 9.39688 2.83203 9.91333C2.83203 10.4298 3.03719 10.9251 3.40237 11.2903C3.76756 11.6554 4.26286 11.8606 4.7793 11.8606H22.2384C21.3957 14.246 19.8441 18.0122 17.4773 21.4518C14.6971 17.7626 13.6642 15.3754 13.6562 15.356C13.4527 14.8856 13.0719 14.5144 12.5965 14.323C12.1211 14.1315 11.5894 14.1352 11.1167 14.3332C10.644 14.5313 10.2684 14.9077 10.0714 15.3808C9.8744 15.854 9.87188 16.3857 10.0644 16.8607C10.1157 16.9828 11.3522 19.8904 14.7431 24.2895C14.8246 24.3948 14.9051 24.4975 14.9857 24.6002C11.5124 28.5257 8.10472 30.9607 6.67878 31.7467C6.22536 31.994 5.88876 32.4113 5.74302 32.9068C5.59727 33.4023 5.65433 33.9354 5.90164 34.3888C6.14895 34.8422 6.56625 35.1788 7.06174 35.3245C7.55723 35.4703 8.09032 35.4132 8.54374 35.1659C8.73492 35.0615 12.8454 32.7858 17.5393 27.5901C19.5326 29.7215 20.9027 30.727 20.985 30.7854C21.1922 30.9359 21.4269 31.044 21.6758 31.1036C21.9248 31.1633 22.1831 31.1732 22.4358 31.1329C22.6886 31.0926 22.931 31.0029 23.1491 30.8689C23.3672 30.7348 23.5567 30.5591 23.7068 30.3517V30.3526Z" fill="#073279"/>
</svg>
