<svg width="60" height="60" viewBox="0 0 60 60" fill="none" xmlns="http://www.w3.org/2000/svg">
<g clip-path="url(#clip0_1750_1250)">
<path d="M12 10C11.2044 10 10.4413 10.3161 9.87868 10.8787C9.31607 11.4413 9 12.2044 9 13V37C9 37.7957 9.31607 38.5587 9.87868 39.1213C10.4413 39.6839 11.2044 40 12 40H40.758C42.3492 40.0003 43.875 40.6327 45 41.758L51 47.758V13C51 12.2044 50.6839 11.4413 50.1213 10.8787C49.5587 10.3161 48.7957 10 48 10H12ZM48 7C49.5913 7 51.1174 7.63214 52.2426 8.75736C53.3679 9.88258 54 11.4087 54 13V51.379C53.9999 51.6758 53.9118 51.9659 53.7468 52.2126C53.5818 52.4593 53.3473 52.6515 53.073 52.7649C52.7987 52.8783 52.4969 52.9078 52.2059 52.8496C51.9148 52.7914 51.6476 52.6481 51.438 52.438L42.879 43.879C42.3165 43.3164 41.5536 43.0002 40.758 43H12C10.4087 43 8.88258 42.3679 7.75736 41.2426C6.63214 40.1174 6 38.5913 6 37V13C6 11.4087 6.63214 9.88258 7.75736 8.75736C8.88258 7.63214 10.4087 7 12 7H48Z" fill="#143A7C" stroke="#143A7C" stroke-width="0.4"/>
<path d="M21 25C21 25.7956 20.6839 26.5587 20.1213 27.1213C19.5587 27.6839 18.7956 28 18 28C17.2044 28 16.4413 27.6839 15.8787 27.1213C15.3161 26.5587 15 25.7956 15 25C15 24.2044 15.3161 23.4413 15.8787 22.8787C16.4413 22.3161 17.2044 22 18 22C18.7956 22 19.5587 22.3161 20.1213 22.8787C20.6839 23.4413 21 24.2044 21 25ZM33 25C33 25.7956 32.6839 26.5587 32.1213 27.1213C31.5587 27.6839 30.7956 28 30 28C29.2044 28 28.4413 27.6839 27.8787 27.1213C27.3161 26.5587 27 25.7956 27 25C27 24.2044 27.3161 23.4413 27.8787 22.8787C28.4413 22.3161 29.2044 22 30 22C30.7956 22 31.5587 22.3161 32.1213 22.8787C32.6839 23.4413 33 24.2044 33 25ZM45 25C45 25.7956 44.6839 26.5587 44.1213 27.1213C43.5587 27.6839 42.7956 28 42 28C41.2044 28 40.4413 27.6839 39.8787 27.1213C39.3161 26.5587 39 25.7956 39 25C39 24.2044 39.3161 23.4413 39.8787 22.8787C40.4413 22.3161 41.2044 22 42 22C42.7956 22 43.5587 22.3161 44.1213 22.8787C44.6839 23.4413 45 24.2044 45 25Z" fill="#143A7C" stroke="#143A7C" stroke-width="0.4"/>
</g>
<defs>
<clipPath id="clip0_1750_1250">
<rect width="48" height="48" fill="white" transform="translate(6 7)"/>
</clipPath>
</defs>
</svg>
