<svg width="60" height="60" viewBox="0 0 60 60" fill="none" xmlns="http://www.w3.org/2000/svg">
<path d="M38.407 18.1997H51.2133L46.2331 54.7319H13.9802L9 18.1997H31.2924" stroke="#143A7C" stroke-width="3.2" stroke-miterlimit="10" stroke-linecap="round" stroke-linejoin="round"/>
<path d="M21.8046 27.3364C23.1144 27.3364 24.1762 26.3142 24.1762 25.0532C24.1762 23.7922 23.1144 22.77 21.8046 22.77C20.4949 22.77 19.4331 23.7922 19.4331 25.0532C19.4331 26.3142 20.4949 27.3364 21.8046 27.3364Z" fill="#143A7C"/>
<path d="M38.4057 27.332C39.7155 27.332 40.7772 26.3098 40.7772 25.0488C40.7772 23.7878 39.7155 22.7656 38.4057 22.7656C37.096 22.7656 36.0342 23.7878 36.0342 25.0488C36.0342 26.3098 37.096 27.332 38.4057 27.332Z" fill="#143A7C"/>
<path d="M21.8071 25.0486V12.4911C21.8071 8.15308 25.6016 4.5 30.1075 4.5C34.6134 4.5 38.4079 8.15308 38.4079 12.4911V25.0486" stroke="#143A7C" stroke-width="3.2" stroke-miterlimit="10"/>
</svg>
