<svg width="60" height="60" viewBox="0 0 60 60" fill="none" xmlns="http://www.w3.org/2000/svg">
<path d="M39.164 32.9194L30.0039 23.7593L20.8438 32.9194L23.1418 35.2175L28.3789 29.9804V54.3749H31.6289V29.9804L36.8659 35.2175L39.164 32.9194Z" fill="#143A7C"/>
<path d="M44.625 20.3976V20.25C44.625 12.1859 38.0641 5.625 30 5.625C21.9359 5.625 15.375 12.1859 15.375 20.25V20.503C12.9681 20.9572 10.7492 22.113 8.99748 23.825C7.93145 24.8597 7.08374 26.0976 6.50447 27.4656C5.9252 28.8336 5.62615 30.3038 5.625 31.7894C5.625 34.9499 6.92378 37.9606 9.28227 40.2668C11.5867 42.5201 14.6984 43.8125 17.8196 43.8125H24.3125V40.5625H17.8196C13.0547 40.5625 8.875 36.4629 8.875 31.7894C8.875 27.4966 12.4947 23.8761 17.1155 23.5471L18.625 23.4396V20.25C18.625 17.2332 19.8234 14.3399 21.9567 12.2067C24.0899 10.0734 26.9832 8.875 30 8.875C33.0168 8.875 35.9101 10.0734 38.0433 12.2067C40.1766 14.3399 41.375 17.2332 41.375 20.25V23.5041L42.9797 23.5244C47.6995 23.5841 51.125 27.0601 51.125 31.7894C51.125 36.7089 47.5039 40.5625 42.8812 40.5625H35.6875V43.8125H42.8812C44.4295 43.8176 45.962 43.5 47.3808 42.8801C48.7997 42.2601 50.0738 41.3514 51.122 40.2117C53.2197 37.9563 54.375 34.9653 54.375 31.7894C54.375 25.8544 50.2837 21.2039 44.625 20.3976Z" fill="#143A7C"/>
</svg>
