<svg width="60" height="60" viewBox="0 0 60 60" fill="none" xmlns="http://www.w3.org/2000/svg">
<path d="M20.7188 32.9375C21.1998 33.0546 21.6925 33.1174 22.1875 33.125C23.4287 33.1247 24.6417 32.7548 25.6719 32.0625L30.7031 36.5469C30.3046 37.3037 30.0707 38.1363 30.0168 38.99C29.9629 39.8437 30.0903 40.6991 30.3906 41.5C30.706 42.4075 31.2264 43.2301 31.9113 43.9038C32.5962 44.5775 33.4273 45.0843 34.3398 45.3847C35.2524 45.6851 36.2219 45.7711 37.1731 45.636C38.1243 45.5009 39.0315 45.1484 39.8244 44.6057C40.6172 44.0631 41.2742 43.345 41.7444 42.5072C42.2147 41.6694 42.4854 40.7344 42.5357 39.775C42.5859 38.8156 42.4143 37.8575 42.0341 36.9751C41.654 36.0928 41.0756 35.31 40.3438 34.6875L44.3125 26.7344C45.0871 26.9091 45.8891 26.9258 46.6703 26.7835C47.4515 26.6412 48.1961 26.3429 48.8594 25.9062C49.9858 25.2188 50.8657 24.1925 51.3731 22.9743C51.8805 21.7561 51.9892 20.4086 51.6838 19.1248C51.3784 17.841 50.6745 16.6869 49.673 15.8276C48.6714 14.9684 47.4236 14.4483 46.1083 14.3417C44.793 14.2351 43.4777 14.5476 42.3508 15.2344C41.224 15.9211 40.3435 16.9469 39.8354 18.1648C39.3273 19.3827 39.2177 20.7301 39.5223 22.0141C39.827 23.2981 40.5302 24.4527 41.5312 25.3125L37.5625 33.2656C37.1315 33.1709 36.6913 33.1237 36.25 33.125C35.0088 33.1253 33.7958 33.4952 32.7656 34.1875L27.7344 29.7031C28.1329 28.9463 28.3668 28.1137 28.4207 27.26C28.4746 26.4063 28.3472 25.5509 28.0469 24.75C27.7338 23.8491 27.2187 23.0318 26.541 22.3607C25.8633 21.6896 25.041 21.1825 24.1371 20.8782C23.2332 20.5739 22.2717 20.4806 21.3261 20.6053C20.3805 20.73 19.476 21.0694 18.6819 21.5976C17.8878 22.1258 17.2251 22.8287 16.7445 23.6526C16.264 24.4764 15.9783 25.3993 15.9095 26.3505C15.8407 27.3018 15.9905 28.2562 16.3474 29.1406C16.7043 30.0251 17.2589 30.8161 17.9688 31.4531L11.25 44.0625V8.125H8.125V48.75C8.125 49.5788 8.45424 50.3737 9.04029 50.9597C9.62634 51.5458 10.4212 51.875 11.25 51.875H51.875V48.75H12.2969L20.7188 32.9375ZM45.625 17.5C46.2431 17.5 46.8473 17.6833 47.3612 18.0267C47.8751 18.37 48.2756 18.8581 48.5121 19.4291C48.7486 20.0001 48.8105 20.6285 48.69 21.2347C48.5694 21.8408 48.2717 22.3977 47.8347 22.8347C47.3977 23.2717 46.8408 23.5694 46.2347 23.69C45.6285 23.8105 45.0001 23.7486 44.4291 23.5121C43.8581 23.2756 43.37 22.8751 43.0267 22.3612C42.6833 21.8473 42.5 21.2431 42.5 20.625C42.5 19.7962 42.8292 19.0013 43.4153 18.4153C44.0013 17.8292 44.7962 17.5 45.625 17.5ZM39.375 39.375C39.375 39.9931 39.1917 40.5973 38.8483 41.1112C38.505 41.6251 38.0169 42.0256 37.4459 42.2621C36.8749 42.4986 36.2465 42.5605 35.6403 42.44C35.0342 42.3194 34.4773 42.0217 34.0403 41.5847C33.6033 41.1477 33.3056 40.5908 33.185 39.9847C33.0645 39.3785 33.1264 38.7501 33.3629 38.1791C33.5994 37.6081 33.9999 37.12 34.5138 36.7767C35.0277 36.4333 35.6319 36.25 36.25 36.25C37.0788 36.25 37.8737 36.5792 38.4597 37.1653C39.0458 37.7513 39.375 38.5462 39.375 39.375ZM22.1875 23.75C22.8056 23.75 23.4098 23.9333 23.9237 24.2767C24.4376 24.62 24.8381 25.1081 25.0746 25.6791C25.3111 26.2501 25.373 26.8785 25.2525 27.4847C25.1319 28.0908 24.8342 28.6477 24.3972 29.0847C23.9602 29.5217 23.4033 29.8194 22.7972 29.94C22.191 30.0605 21.5626 29.9986 20.9916 29.7621C20.4206 29.5256 19.9325 29.1251 19.5892 28.6112C19.2458 28.0973 19.0625 27.4931 19.0625 26.875C19.0625 26.0462 19.3917 25.2513 19.9778 24.6653C20.5638 24.0792 21.3587 23.75 22.1875 23.75Z" fill="#143A7C"/>
</svg>
