<svg width="60" height="60" viewBox="0 0 60 60" fill="none" xmlns="http://www.w3.org/2000/svg">
<path d="M51.875 42.5V39.375H48.5922C48.3907 38.3969 48.0023 37.4669 47.4484 36.6359L49.7766 34.3078L47.5672 32.0984L45.2391 34.4266C44.4081 33.8727 43.4781 33.4843 42.5 33.2828V30H39.375V33.2828C38.3969 33.4843 37.4669 33.8727 36.6359 34.4266L34.3078 32.0984L32.0984 34.3078L34.4266 36.6359C33.8727 37.4669 33.4843 38.3969 33.2828 39.375H30V42.5H33.2828C33.4843 43.4781 33.8727 44.4081 34.4266 45.2391L32.0984 47.5672L34.3078 49.7766L36.6359 47.4484C37.4669 48.0023 38.3969 48.3907 39.375 48.5922V51.875H42.5V48.5922C43.4781 48.3907 44.4081 48.0023 45.2391 47.4484L47.5672 49.7766L49.7766 47.5672L47.4484 45.2391C48.0023 44.4081 48.3907 43.4781 48.5922 42.5H51.875ZM40.9375 45.625C40.0104 45.625 39.1041 45.3501 38.3333 44.835C37.5624 44.3199 36.9616 43.5879 36.6068 42.7313C36.252 41.8748 36.1592 40.9323 36.3401 40.023C36.5209 39.1137 36.9674 38.2785 37.6229 37.6229C38.2785 36.9674 39.1137 36.5209 40.023 36.3401C40.9323 36.1592 41.8748 36.252 42.7313 36.6068C43.5879 36.9616 44.3199 37.5624 44.835 38.3333C45.3501 39.1041 45.625 40.0104 45.625 40.9375C45.6238 42.1803 45.1295 43.3719 44.2507 44.2507C43.3719 45.1295 42.1803 45.6238 40.9375 45.625Z" fill="#143A7C"/>
<path d="M48.75 11.25H11.25C10.4215 11.2508 9.62708 11.5803 9.0412 12.1662C8.45533 12.7521 8.12583 13.5465 8.125 14.375V45.625C8.12583 46.4535 8.45533 47.2479 9.0412 47.8338C9.62708 48.4197 10.4215 48.7492 11.25 48.75H26.875V45.625H11.25V23.75H48.75V28.4375H51.875V14.375C51.8742 13.5465 51.5447 12.7521 50.9588 12.1662C50.3729 11.5803 49.5785 11.2508 48.75 11.25ZM48.75 20.625H11.25V14.375H48.75V20.625Z" fill="#143A7C"/>
<path d="M36.25 19.0625C37.1129 19.0625 37.8125 18.3629 37.8125 17.5C37.8125 16.6371 37.1129 15.9375 36.25 15.9375C35.3871 15.9375 34.6875 16.6371 34.6875 17.5C34.6875 18.3629 35.3871 19.0625 36.25 19.0625Z" fill="#143A7C"/>
<path d="M40.9375 19.0625C41.8004 19.0625 42.5 18.3629 42.5 17.5C42.5 16.6371 41.8004 15.9375 40.9375 15.9375C40.0746 15.9375 39.375 16.6371 39.375 17.5C39.375 18.3629 40.0746 19.0625 40.9375 19.0625Z" fill="#143A7C"/>
<path d="M45.625 19.0625C46.4879 19.0625 47.1875 18.3629 47.1875 17.5C47.1875 16.6371 46.4879 15.9375 45.625 15.9375C44.7621 15.9375 44.0625 16.6371 44.0625 17.5C44.0625 18.3629 44.7621 19.0625 45.625 19.0625Z" fill="#143A7C"/>
</svg>
