<svg width="60" height="60" viewBox="0 0 60 60" fill="none" xmlns="http://www.w3.org/2000/svg">
<path d="M53.4375 42.5H47.1875V36.25H44.0625V42.5H37.8125V45.625H44.0625V51.875H47.1875V45.625H53.4375V42.5Z" fill="#143A7C"/>
<path d="M44.0625 12.8125H39.375V11.25C39.3725 10.422 39.0425 9.62854 38.457 9.04302C37.8715 8.45751 37.078 8.12747 36.25 8.125H23.75C22.922 8.12747 22.1285 8.45751 21.543 9.04302C20.9575 9.62854 20.6275 10.422 20.625 11.25V12.8125H15.9375C15.1095 12.815 14.316 13.145 13.7305 13.7305C13.145 14.316 12.815 15.1095 12.8125 15.9375V48.75C12.815 49.578 13.145 50.3715 13.7305 50.957C14.316 51.5425 15.1095 51.8725 15.9375 51.875H31.5625V48.75H15.9375V15.9375H20.625V20.625H39.375V15.9375H44.0625V30H47.1875V15.9375C47.185 15.1095 46.855 14.316 46.2695 13.7305C45.684 13.145 44.8905 12.815 44.0625 12.8125ZM36.25 17.5H23.75V11.25H36.25V17.5Z" fill="#143A7C"/>
</svg>
