<svg width="38" height="54" viewBox="0 0 38 54" fill="none" xmlns="http://www.w3.org/2000/svg">
<path d="M25.7808 5.26221H35.7727V52.0001H2V5.26221H20.9846" stroke="white" stroke-width="3.5" stroke-miterlimit="10" stroke-linecap="round" stroke-linejoin="round"/>
<path d="M11.7928 12.8702C12.8965 12.8702 13.7913 11.897 13.7913 10.6966C13.7913 9.49611 12.8965 8.52295 11.7928 8.52295C10.6892 8.52295 9.79443 9.49611 9.79443 10.6966C9.79443 11.897 10.6892 12.8702 11.7928 12.8702Z" fill="white"/>
<path d="M25.782 12.8692C26.8857 12.8692 27.7804 11.896 27.7804 10.6956C27.7804 9.49513 26.8857 8.52197 25.782 8.52197C24.6783 8.52197 23.7836 9.49513 23.7836 10.6956C23.7836 11.896 24.6783 12.8692 25.782 12.8692Z" fill="white"/>
<path d="M11.7935 9.60968V2" stroke="white" stroke-width="3.5" stroke-miterlimit="10" stroke-linecap="round" stroke-linejoin="round"/>
<path d="M25.7808 9.60968V2" stroke="white" stroke-width="3.5" stroke-miterlimit="10" stroke-linecap="round" stroke-linejoin="round"/>
<path d="M7.39404 24.8252H17.386" stroke="white" stroke-width="3.5" stroke-miterlimit="10" stroke-linecap="round" stroke-linejoin="round"/>
<path d="M24.3779 22.6494L26.3763 24.8227L30.373 20.4761" stroke="white" stroke-width="3.5" stroke-miterlimit="10" stroke-linecap="round" stroke-linejoin="round"/>
<path d="M7.39404 33.5205H17.386" stroke="white" stroke-width="3.5" stroke-miterlimit="10" stroke-linecap="round" stroke-linejoin="round"/>
<path d="M24.3779 33.5206L26.3763 35.6945L30.373 31.3467" stroke="white" stroke-width="3.5" stroke-miterlimit="10" stroke-linecap="round" stroke-linejoin="round"/>
<path d="M7.39404 42.2144H17.386" stroke="white" stroke-width="3.5" stroke-miterlimit="10" stroke-linecap="round" stroke-linejoin="round"/>
<path d="M24.3798 42.2148L26.3781 44.3881L30.3749 40.0415" stroke="white" stroke-width="3.5" stroke-miterlimit="10" stroke-linecap="round" stroke-linejoin="round"/>
</svg>
