<svg width="52" height="52" viewBox="0 0 52 52" fill="none" xmlns="http://www.w3.org/2000/svg">
<path d="M38.7471 8.6106H12.9156C10.5379 8.6106 8.61035 10.5381 8.61035 12.9158V38.7473C8.61035 41.125 10.5379 43.0525 12.9156 43.0525H38.7471C41.1248 43.0525 43.0523 41.125 43.0523 38.7473V12.9158C43.0523 10.5381 41.1248 8.6106 38.7471 8.6106Z" stroke="#073279" stroke-width="4.30524" stroke-linecap="round" stroke-linejoin="round"/>
<path d="M19.374 34.4419V17.2209H27.9845C29.1263 17.2209 30.2214 17.6745 31.0288 18.4819C31.8362 19.2893 32.2898 20.3844 32.2898 21.5262C32.2898 22.668 31.8362 23.7631 31.0288 24.5705C30.2214 25.3778 29.1263 25.8314 27.9845 25.8314H19.374" stroke="#073279" stroke-width="4.30524" stroke-linecap="round" stroke-linejoin="round"/>
</svg>
