<svg width="65" height="65" viewBox="0 0 65 65" fill="none" xmlns="http://www.w3.org/2000/svg">
<path d="M12.7882 23.5131C12.7882 21.1062 13.7443 18.7978 15.4462 17.0959C17.1482 15.394 19.4565 14.4378 21.8634 14.4378C24.2704 14.4378 26.5787 15.394 28.2806 17.0959C29.9826 18.7978 30.9387 21.1062 30.9387 23.5131C30.9387 25.92 29.9826 28.2284 28.2806 29.9303C26.5787 31.6322 24.2704 32.5884 21.8634 32.5884C19.4565 32.5884 17.1482 31.6322 15.4462 29.9303C13.7443 28.2284 12.7882 25.92 12.7882 23.5131Z" stroke="#073279" stroke-width="4.12513"/>
<path d="M40.0137 26.8133C40.0137 25.2817 40.6222 23.8127 41.7053 22.7297C42.7883 21.6466 44.2572 21.0382 45.7889 21.0382C47.3206 21.0382 48.7895 21.6466 49.8726 22.7297C50.9557 23.8127 51.5641 25.2817 51.5641 26.8133C51.5641 28.345 50.9557 29.814 49.8726 30.897C48.7895 31.9801 47.3206 32.5885 45.7889 32.5885C44.2572 32.5885 42.7883 31.9801 41.7053 30.897C40.6222 29.814 40.0137 28.345 40.0137 26.8133Z" stroke="#073279" stroke-width="4.12513"/>
<path d="M38.204 51.0474C40.0889 51.8116 42.5048 52.2862 45.5857 52.2862C51.7045 52.2862 55.2009 50.4173 57.1074 48.1086C58.0324 46.9878 58.5017 45.8563 58.743 44.9902C58.8805 44.4884 58.9641 43.9734 58.9924 43.4538V43.3815C58.9924 42.6142 58.8412 41.8544 58.5476 41.1456C58.254 40.4367 57.8236 39.7926 57.2811 39.2501C56.7386 38.7075 56.0945 38.2772 55.3856 37.9836C54.6767 37.6899 53.917 37.5388 53.1497 37.5388H38.0216C37.9466 37.5388 37.8742 37.5388 37.8018 37.5442C38.8582 38.6435 39.6251 40.0244 39.9897 41.5608H53.1497C54.1472 41.5608 54.9569 42.3625 54.9704 43.3546C54.9512 43.5469 54.9153 43.7371 54.8631 43.9231C54.6974 44.5194 54.4047 45.0728 54.0051 45.5453C53.0666 46.6875 50.8625 48.2642 45.5857 48.2642C42.958 48.2642 41.0918 47.8727 39.7672 47.3391C39.4776 48.4116 39.0003 49.7067 38.204 51.0474Z" fill="#073279"/>
<path d="M11.3953 37.5388C9.79526 37.5388 8.26074 38.1744 7.12933 39.3058C5.99792 40.4373 5.3623 41.9718 5.3623 43.5718V44.3172C5.36546 44.5037 5.37798 44.6898 5.39984 44.875C5.62127 46.8701 6.33841 48.7782 7.48592 50.4253C9.67926 53.5571 13.8675 56.3082 21.4503 56.3082C29.0331 56.3082 33.2214 53.5598 35.4147 50.4226C36.5625 48.7757 37.2797 46.8675 37.5008 44.8723C37.5197 44.6878 37.5322 44.5026 37.5383 44.3172V43.5718C37.5383 41.9718 36.9027 40.4373 35.7713 39.3058C34.6399 38.1744 33.1054 37.5388 31.5053 37.5388H11.3953ZM9.38431 44.2609V43.5718C9.38431 43.0385 9.59618 42.527 9.97332 42.1498C10.3505 41.7727 10.862 41.5608 11.3953 41.5608H31.5053C32.0387 41.5608 32.5502 41.7727 32.9273 42.1498C33.3045 42.527 33.5163 43.0385 33.5163 43.5718V44.2609L33.4976 44.4754C33.3448 45.7841 32.8714 47.0348 32.1194 48.1167C30.7975 50.007 27.9445 52.2862 21.4503 52.2862C14.9561 52.2862 12.1032 50.007 10.7786 48.1167C10.0275 47.0346 9.55508 45.7839 9.40308 44.4754C9.39494 44.4041 9.38868 44.3326 9.38431 44.2609Z" fill="#073279"/>
</svg>
