<svg width="31" height="44" viewBox="0 0 31 44" fill="none" xmlns="http://www.w3.org/2000/svg">
<path fill-rule="evenodd" clip-rule="evenodd" d="M30.6087 14.7821C30.6087 15.6534 30.5324 16.507 30.3861 17.3369C30.0808 19.3876 29.4249 21.8352 28.1897 24.5467C25.2512 30.9971 18.7232 39.7767 15.8265 43.3603C13.7658 41.1206 7.87093 32.7351 4.35907 26.7864C0.847202 20.8378 0.38743 15.4684 0.686058 13.8857L0.713411 13.8835C1.1835 6.13799 7.69 0 15.6475 0C22.7573 0 28.7088 4.89992 30.2314 11.4684L30.2502 11.4668C30.4545 12.1025 30.6304 13.2127 30.6085 14.6991L30.6087 14.7821ZM15.7863 21.6801C19.3784 21.6801 22.2904 18.7682 22.2904 15.176C22.2904 11.5839 19.3784 8.67191 15.7863 8.67191C12.1941 8.67191 9.28215 11.5839 9.28215 15.176C9.28215 18.7682 12.1941 21.6801 15.7863 21.6801Z" fill="#0084CF"/>
</svg>
