<svg width="45" height="54" viewBox="0 0 45 54" fill="none" xmlns="http://www.w3.org/2000/svg">
<path d="M22.5238 36.6509C24.7671 36.6509 26.5857 34.6728 26.5857 32.2327C26.5857 29.7926 24.7671 27.8145 22.5238 27.8145C20.2805 27.8145 18.4619 29.7926 18.4619 32.2327C18.4619 34.6728 20.2805 36.6509 22.5238 36.6509Z" stroke="white" stroke-width="3.5" stroke-miterlimit="10" stroke-linecap="round" stroke-linejoin="round"/>
<path d="M33.4263 28.5116C31.9299 23.6279 27.6542 19.907 22.5233 19.907C16.3236 19.907 11.1927 25.4884 11.1927 32.2326C11.1927 39.907 16.1098 48.2791 22.3095 52C22.3095 52 31.5023 47.3488 38.9847 31.3023C43.9018 20.6047 42.6191 10.6047 42.6191 10.6047L22.3095 2L2 10.8372C2 10.8372 2 24.093 4.7792 29.907" stroke="white" stroke-width="3.5" stroke-miterlimit="10" stroke-linecap="round" stroke-linejoin="round"/>
</svg>
