<svg width="36" height="54" viewBox="0 0 36 54" fill="none" xmlns="http://www.w3.org/2000/svg">
<path d="M7.8119 20.1616L2 46.8061L22.3417 51.9995L28.1536 25.1292L21.7189 13.8392C21.0962 12.7102 19.6433 12.4844 18.3979 13.1618L7.8119 20.1616Z" stroke="white" stroke-width="3.5" stroke-miterlimit="10" stroke-linecap="round" stroke-linejoin="round"/>
<path d="M18.6034 21.7422C19.5205 21.7422 20.264 20.9336 20.264 19.9361C20.264 18.9385 19.5205 18.1299 18.6034 18.1299C17.6863 18.1299 16.9429 18.9385 16.9429 19.9361C16.9429 20.9336 17.6863 21.7422 18.6034 21.7422Z" stroke="white" stroke-width="3.5" stroke-miterlimit="10" stroke-linecap="round" stroke-linejoin="round"/>
<path d="M12.5845 32.3567C13.7309 32.3567 14.6602 31.3457 14.6602 30.0985C14.6602 28.8514 13.7309 27.8403 12.5845 27.8403C11.4381 27.8403 10.5088 28.8514 10.5088 30.0985C10.5088 31.3457 11.4381 32.3567 12.5845 32.3567Z" stroke="white" stroke-width="3.5" stroke-miterlimit="10" stroke-linecap="round" stroke-linejoin="round"/>
<path d="M17.565 43.8697C18.7114 43.8697 19.6407 42.8589 19.6407 41.6119C19.6407 40.3649 18.7114 39.354 17.565 39.354C16.4186 39.354 15.4893 40.3649 15.4893 41.6119C15.4893 42.8589 16.4186 43.8697 17.565 43.8697Z" stroke="white" stroke-width="3.5" stroke-miterlimit="10" stroke-linecap="round" stroke-linejoin="round"/>
<path d="M20.8878 31.0005L8.43359 41.6127" stroke="white" stroke-width="3.5" stroke-miterlimit="10" stroke-linecap="round" stroke-linejoin="round"/>
<path d="M19.0216 18.3571C19.0216 18.3571 16.7383 0.518533 22.5504 2.09916C26.0791 3.00238 24.0034 8.87329 21.7201 13.3894" stroke="white" stroke-width="3.5" stroke-miterlimit="10" stroke-linecap="round" stroke-linejoin="round"/>
<path d="M25.6641 51.3229L33.344 50.8713L31.8911 23.325L27.5322 19.2607" stroke="white" stroke-width="3.5" stroke-miterlimit="10" stroke-linecap="round" stroke-linejoin="round"/>
</svg>
