<svg width="66" height="47" viewBox="0 0 66 47" fill="none" xmlns="http://www.w3.org/2000/svg">
<path d="M13.8695 44.0075C16.3154 44.0075 18.2981 41.8509 18.2981 39.1905C18.2981 36.5302 16.3154 34.3735 13.8695 34.3735C11.4237 34.3735 9.44092 36.5302 9.44092 39.1905C9.44092 41.8509 11.4237 44.0075 13.8695 44.0075Z" stroke="white" stroke-width="3.5" stroke-miterlimit="10" stroke-linecap="round" stroke-linejoin="round"/>
<path d="M52.663 44.3943C55.1089 44.3943 57.0917 42.2376 57.0917 39.5773C57.0917 36.9169 55.1089 34.7603 52.663 34.7603C50.2172 34.7603 48.2344 36.9169 48.2344 39.5773C48.2344 42.2376 50.2172 44.3943 52.663 44.3943Z" stroke="white" stroke-width="3.5" stroke-miterlimit="10" stroke-linecap="round" stroke-linejoin="round"/>
<path d="M9.44012 39.7703H7.31437C4.48004 39.7703 2 37.2652 2 33.9893V28.2083V27.2448C2 26.6667 2.17715 26.0886 2.35429 25.7032L6.42864 15.8754C6.96008 14.5265 8.37725 13.563 9.79441 13.563H29.6347H36.8977C37.7834 13.563 38.8463 13.9484 39.3778 14.7192L51.778 26.6667" stroke="white" stroke-width="3.5" stroke-miterlimit="10" stroke-linecap="round" stroke-linejoin="round"/>
<path d="M18.4751 39.771H48.2356" stroke="white" stroke-width="3.5" stroke-miterlimit="10" stroke-linecap="round" stroke-linejoin="round"/>
<path d="M9.79346 23.1987C11.0335 25.3185 13.1592 26.6674 15.4621 26.6674H59.3942C61.8743 26.6674 64 28.9799 64 31.6777V39.7714H57.2685" stroke="white" stroke-width="3.5" stroke-miterlimit="10" stroke-linecap="round" stroke-linejoin="round"/>
<path d="M29.6338 26.6665V23.005V19.1509" stroke="white" stroke-width="3.5" stroke-miterlimit="10" stroke-linecap="round" stroke-linejoin="round"/>
<path d="M13.5142 9.90039V12.7912" stroke="white" stroke-width="3.5" stroke-miterlimit="10" stroke-linecap="round" stroke-linejoin="round"/>
<path d="M33.7095 9.90039V12.7912" stroke="white" stroke-width="3.5" stroke-miterlimit="10" stroke-linecap="round" stroke-linejoin="round"/>
<path d="M34.1931 9.70821H12.324C9.99372 9.70821 8.20117 8.03251 8.20117 5.85411C8.20117 3.6757 9.99372 2 12.324 2H34.1931C36.5234 2 38.316 3.6757 38.316 5.85411C38.1367 7.86494 36.3442 9.70821 34.1931 9.70821Z" stroke="white" stroke-width="3.5" stroke-miterlimit="10" stroke-linecap="round" stroke-linejoin="round"/>
</svg>
