<svg width="53" height="46" viewBox="0 0 53 46" fill="none" xmlns="http://www.w3.org/2000/svg">
<path d="M2 43L26 2L51 43H2Z" stroke="white" stroke-width="3.5" stroke-linejoin="round"/>
<path d="M23.98 17H28.42L27.67 31.04H24.7L23.98 17ZM26.2 38.21C25.5 38.21 24.92 37.99 24.46 37.55C24 37.09 23.77 36.53 23.77 35.87C23.77 35.21 24 34.66 24.46 34.22C24.92 33.78 25.5 33.56 26.2 33.56C26.88 33.56 27.44 33.78 27.88 34.22C28.34 34.66 28.57 35.21 28.57 35.87C28.57 36.53 28.34 37.09 27.88 37.55C27.44 37.99 26.88 38.21 26.2 38.21Z" fill="white"/>
</svg>
